<?xml version="1.0" encoding="UTF-8"?>
<svg width="16px" height="16px" viewBox="0 0 16 16" version="1.1" xmlns="http://www.w3.org/2000/svg" xmlns:xlink="http://www.w3.org/1999/xlink">
    <!-- Generator: Sketch 53.2 (72643) - https://sketchapp.com -->
    <title>BHSP Logo B</title>
    <desc>Created with Sketch.</desc>
    <defs>
        <rect id="path-1" x="0" y="0" width="16" height="16" rx="1"></rect>
    </defs>
    <g id="BHSP-Logo-B" stroke="none" stroke-width="1" fill="none" fill-rule="evenodd">
        <g id="Logo-B">
            <g id="Group">
                <mask id="mask-2" fill="white">
                    <use xlink:href="#path-1"></use>
                </mask>
                <rect stroke="#ECEFF1" stroke-width="0.5" x="0.25" y="0.25" width="15.5" height="15.5" rx="1"></rect>
                <g mask="url(#mask-2)">
                    <g id="Layers-A" style="mix-blend-mode: normal;" transform="translate(0.000000, 6.000000)">
                        <g id="Layers">
                            <rect id="Rectangle" fill="#0D47A1" x="0" y="9" width="16" height="1"></rect>
                            <rect id="Rectangle-Copy" fill="#303F9F" x="0" y="8" width="16" height="1"></rect>
                            <rect id="Rectangle-Copy-2" fill="#512DA8" x="0" y="7" width="16" height="1"></rect>
                            <rect id="Rectangle-Copy-3" fill="#8E24AA" x="0" y="6" width="16" height="1"></rect>
                            <rect id="Rectangle-Copy-4" fill="#E91E63" x="0" y="5" width="16" height="1"></rect>
                            <rect id="Rectangle-Copy-5" fill="#EF5350" x="0" y="4" width="16" height="1"></rect>
                            <rect id="Rectangle-Copy-6" fill="#FF8A65" x="0" y="3" width="16" height="1"></rect>
                            <rect id="Rectangle-Copy-7" fill="#FFCC80" x="0" y="2" width="16" height="1"></rect>
                            <rect id="Rectangle-Copy-8" fill="#FFECB3" x="0" y="1" width="16" height="1"></rect>
                            <rect id="Rectangle-Copy-9" fill="#FFFDE7" x="0" y="0" width="16" height="1"></rect>
                        </g>
                    </g>
                    <g id="Group-2" opacity="0.625534784" style="mix-blend-mode: luminosity;">
                        <g id="Connectors-B" opacity="0.694475446" style="mix-blend-mode: luminosity;" fill="#42FFA3">
                            <g id="Connectors" transform="translate(1.000000, 0.000000)">
                                <path d="M9,11 C8.44771525,11 8,11.4477153 8,12 C8,12.5522847 8.44771525,13 9,13 L9,13.5 C9,14.0522847 8.55228475,14.5 8,14.5 C8,13.9477153 7.55228475,13.5 7,13.5 C6.44771525,13.5 6,13.9477153 6,14.5 C5.44771525,14.5 5,14.0522847 5,13.5 L5,13 C5.55228475,13 6,12.5522847 6,12 C6,11.4477153 5.55228475,11 5,11 L9,11 Z" id="Combined-Shape"></path>
                                <path d="M2.5,9 C2.77614237,9 3,9.22385763 3,9.5 C3,9.77614237 2.77614237,10 2.5,10 C2.22385763,10 2,10.2238576 2,10.5 C2,10.7761424 2.22385763,11 2.5,11 C2.77614237,11 3,11.2238576 3,11.5 C3,11.7761424 2.77614237,12 2.5,12 C1.67157288,12 1,11.3284271 1,10.5 C1,9.67157288 1.67157288,9 2.5,9 Z" id="Combined-Shape"></path>
                                <g id="Group-4" transform="translate(11.000000, 4.000000)">
                                    <path d="M2.5,0 C2.77614237,0 3,0.223857625 3,0.5 C3,0.776142375 2.77614237,1 2.5,1 C1.67157288,1 1,1.67157288 1,2.5 C1,3.32842712 1.67157288,4 2.5,4 C2.77614237,4 3,4.22385763 3,4.5 C3,4.77614237 2.77614237,5 2.5,5 C1.11928813,5 0,3.88071187 0,2.5 C0,1.11928813 1.11928813,0 2.5,0 Z" id="Combined-Shape-Copy" transform="translate(1.500000, 2.500000) scale(-1, 1) translate(-1.500000, -2.500000) "></path>
                                    <path d="M1.5,2 C1.77614237,2 2,2.22385763 2,2.5 C2,2.77614237 1.77614237,3 1.5,3 C1.22385763,3 1,3.22385763 1,3.5 C1,3.77614237 1.22385763,4 1.5,4 C1.77614237,4 2,4.22385763 2,4.5 C2,4.77614237 1.77614237,5 1.5,5 C0.671572875,5 0,4.32842712 0,3.5 C0,2.67157288 0.671572875,2 1.5,2 Z" id="Combined-Shape" transform="translate(1.000000, 3.500000) scale(-1, 1) translate(-1.000000, -3.500000) "></path>
                                </g>
                                <path d="M5.49613894,4.06201737 L6.25579159,4.15697395 C6.75000748,4.21875094 7.24999252,4.21875094 7.74420841,4.15697395 L8.50386106,4.06201737 C8.74575219,4.03178098 8.96635513,4.20336104 8.99659152,4.44525217 C8.99886164,4.46341313 9,4.48169771 9,4.5 L9,4.5 C9,4.74377358 8.80238247,4.94139111 8.55860889,4.94139111 C8.5403066,4.94139111 8.52202202,4.94025275 8.50386106,4.93798263 L7.74420841,4.84302605 C7.24999252,4.78124906 6.75000748,4.78124906 6.25579159,4.84302605 L5.49613894,4.93798263 C5.25424781,4.96821902 5.03364487,4.79663896 5.00340848,4.55474783 C5.00113836,4.53658687 5,4.51830229 5,4.5 L5,4.5 C5,4.25622642 5.19761753,4.05860889 5.44139111,4.05860889 C5.4596934,4.05860889 5.47797798,4.05974725 5.49613894,4.06201737 Z" id="Path-2"></path>
                                <path d="M5.49613894,6.06201737 L6.25579159,6.15697395 C6.75000748,6.21875094 7.24999252,6.21875094 7.74420841,6.15697395 L8.50386106,6.06201737 C8.74575219,6.03178098 8.96635513,6.20336104 8.99659152,6.44525217 C8.99886164,6.46341313 9,6.48169771 9,6.5 L9,6.5 C9,6.74377358 8.80238247,6.94139111 8.55860889,6.94139111 C8.5403066,6.94139111 8.52202202,6.94025275 8.50386106,6.93798263 L7.74420841,6.84302605 C7.24999252,6.78124906 6.75000748,6.78124906 6.25579159,6.84302605 L5.49613894,6.93798263 C5.25424781,6.96821902 5.03364487,6.79663896 5.00340848,6.55474783 C5.00113836,6.53658687 5,6.51830229 5,6.5 L5,6.5 C5,6.25622642 5.19761753,6.05860889 5.44139111,6.05860889 C5.4596934,6.05860889 5.47797798,6.05974725 5.49613894,6.06201737 Z" id="Path-2-Copy"></path>
                                <g id="Group-4-Copy" transform="translate(1.500000, 4.500000) scale(-1, 1) translate(-1.500000, -4.500000) translate(0.000000, 2.000000)">
                                    <path d="M2.5,0 C2.77614237,0 3,0.223857625 3,0.5 C3,0.776142375 2.77614237,1 2.5,1 C1.67157288,1 1,1.67157288 1,2.5 C1,3.32842712 1.67157288,4 2.5,4 C2.77614237,4 3,4.22385763 3,4.5 C3,4.77614237 2.77614237,5 2.5,5 C1.11928813,5 0,3.88071187 0,2.5 C0,1.11928813 1.11928813,0 2.5,0 Z" id="Combined-Shape-Copy" transform="translate(1.500000, 2.500000) scale(-1, 1) translate(-1.500000, -2.500000) "></path>
                                    <path d="M1.5,0 C1.77614237,0 2,0.223857625 2,0.5 C2,0.776142375 1.77614237,1 1.5,1 C1.22385763,1 1,1.22385763 1,1.5 C1,1.77614237 1.22385763,2 1.5,2 C1.77614237,2 2,2.22385763 2,2.5 C2,2.77614237 1.77614237,3 1.5,3 C0.671572875,3 0,2.32842712 0,1.5 C0,0.671572875 0.671572875,0 1.5,0 Z" id="Combined-Shape" transform="translate(1.000000, 1.500000) scale(-1, 1) translate(-1.000000, -1.500000) "></path>
                                </g>
                                <g id="Group" transform="translate(5.000000, 0.000000)">
                                    <path d="M0.496138938,2.06201737 L1.25579159,2.15697395 C1.75000748,2.21875094 2.24999252,2.21875094 2.74420841,2.15697395 L3.50386106,2.06201737 C3.74575219,2.03178098 3.96635513,2.20336104 3.99659152,2.44525217 C3.99886164,2.46341313 4,2.48169771 4,2.5 L4,2.5 C4,2.74377358 3.80238247,2.94139111 3.55860889,2.94139111 C3.5403066,2.94139111 3.52202202,2.94025275 3.50386106,2.93798263 L2.74420841,2.84302605 C2.24999252,2.78124906 1.75000748,2.78124906 1.25579159,2.84302605 L0.496138938,2.93798263 C0.25424781,2.96821902 0.0336448677,2.79663896 0.00340847656,2.55474783 C0.00113835649,2.53658687 2.24138447e-18,2.51830229 0,2.5 L0,2.5 C-2.98536532e-17,2.25622642 0.197617531,2.05860889 0.441391109,2.05860889 C0.459693402,2.05860889 0.477977978,2.05974725 0.496138938,2.06201737 Z" id="Path-2-Copy"></path>
                                    <path d="M0.496138938,0.0620173673 L1.25579159,0.156973949 C1.75000748,0.218750935 2.24999252,0.218750935 2.74420841,0.156973949 L3.50386106,0.0620173673 C3.74575219,0.0317809762 3.96635513,0.203361042 3.99659152,0.445252171 C3.99886164,0.463413132 4,0.481697707 4,0.5 L4,0.5 C4,0.743773578 3.80238247,0.941391109 3.55860889,0.941391109 C3.5403066,0.941391109 3.52202202,0.940252753 3.50386106,0.937982633 L2.74420841,0.843026051 C2.24999252,0.781249065 1.75000748,0.781249065 1.25579159,0.843026051 L0.496138938,0.937982633 C0.25424781,0.968219024 0.0336448677,0.796638958 0.00340847656,0.554747829 C0.00113835649,0.536586868 2.24138447e-18,0.518302293 0,0.5 L0,0.5 C-2.98536532e-17,0.256226422 0.197617531,0.0586088907 0.441391109,0.0586088907 C0.459693402,0.0586088907 0.477977978,0.0597472472 0.496138938,0.0620173673 Z" id="Path-2"></path>
                                    <path d="M0.496138938,1.06201737 L1.25579159,1.15697395 C1.75000748,1.21875094 2.24999252,1.21875094 2.74420841,1.15697395 L3.50386106,1.06201737 C3.74575219,1.03178098 3.96635513,1.20336104 3.99659152,1.44525217 C3.99886164,1.46341313 4,1.48169771 4,1.5 L4,1.5 C4,1.74377358 3.80238247,1.94139111 3.55860889,1.94139111 C3.5403066,1.94139111 3.52202202,1.94025275 3.50386106,1.93798263 L2.74420841,1.84302605 C2.24999252,1.78124906 1.75000748,1.78124906 1.25579159,1.84302605 L0.496138938,1.93798263 C0.25424781,1.96821902 0.0336448677,1.79663896 0.00340847656,1.55474783 C0.00113835649,1.53658687 2.24138447e-18,1.51830229 0,1.5 L0,1.5 C-2.98536532e-17,1.25622642 0.197617531,1.05860889 0.441391109,1.05860889 C0.459693402,1.05860889 0.477977978,1.05974725 0.496138938,1.06201737 Z" id="Path-2-Copy-2"></path>
                                </g>
                            </g>
                        </g>
                        <g id="Blocks-A" transform="translate(1.000000, 0.000000)">
                            <g id="Blocks" transform="translate(1.000000, -4.000000)">
                                <g id="Group-2" transform="translate(0.000000, 17.000000)" fill="#ECEFF1">
                                    <rect id="L" x="0" y="0" width="5" height="6" rx="1"></rect>
                                    <rect id="R" x="7" y="0" width="5" height="6" rx="1"></rect>
                                </g>
                                <rect id="Mid-Low" fill="#B0BEC5" x="1" y="15" width="10" height="1" rx="0.5"></rect>
                                <rect id="Mid" fill="#607D8B" x="1" y="12" width="10" height="2" rx="1"></rect>
                                <g id="Mid-high" transform="translate(1.000000, 8.000000)" fill="#455A64">
                                    <rect id="TL" x="0" y="0" width="4" height="1" rx="0.5"></rect>
                                    <rect id="BL" x="0" y="2" width="4" height="1" rx="0.5"></rect>
                                    <rect id="TR" x="6" y="0" width="4" height="1" rx="0.5"></rect>
                                    <rect id="BR" x="6" y="2" width="4" height="1" rx="0.5"></rect>
                                </g>
                                <g id="Top" fill="#263238">
                                    <rect id="L" x="0" y="0" width="5" height="7" rx="1"></rect>
                                    <rect id="R" x="7" y="0" width="5" height="7" rx="1"></rect>
                                </g>
                            </g>
                        </g>
                    </g>
                </g>
            </g>
        </g>
    </g>
</svg>